<mxfile host="Electron" agent="Mozilla/5.0 (Windows NT 10.0; Win64; x64) AppleWebKit/537.36 (KHTML, like Gecko) draw.io/24.7.8 Chrome/128.0.6613.36 Electron/32.0.1 Safari/537.36" version="24.7.8">
  <diagram name="Page-1" id="jnCkXLoFDYFhxXH_N0Sx">
    <mxGraphModel dx="1373" dy="470" grid="1" gridSize="10" guides="1" tooltips="1" connect="1" arrows="1" fold="1" page="1" pageScale="1" pageWidth="850" pageHeight="1100" math="0" shadow="0">
      <root>
        <mxCell id="0" />
        <mxCell id="1" parent="0" />
        <mxCell id="KPl6-Z8b2giDErf2pCn6-1" value="socket()" style="rounded=0;whiteSpace=wrap;html=1;fontSize=14;" parent="1" vertex="1">
          <mxGeometry x="170" y="160" width="90" height="30" as="geometry" />
        </mxCell>
        <mxCell id="KPl6-Z8b2giDErf2pCn6-2" value="" style="endArrow=classic;html=1;rounded=0;exitX=0.5;exitY=1;exitDx=0;exitDy=0;" parent="1" source="KPl6-Z8b2giDErf2pCn6-1" edge="1">
          <mxGeometry width="50" height="50" relative="1" as="geometry">
            <mxPoint x="240" y="280" as="sourcePoint" />
            <mxPoint x="215" y="210" as="targetPoint" />
          </mxGeometry>
        </mxCell>
        <mxCell id="KPl6-Z8b2giDErf2pCn6-3" value="bind()" style="rounded=0;whiteSpace=wrap;html=1;fontSize=14;" parent="1" vertex="1">
          <mxGeometry x="170" y="210" width="90" height="30" as="geometry" />
        </mxCell>
        <mxCell id="KPl6-Z8b2giDErf2pCn6-4" value="" style="endArrow=classic;html=1;rounded=0;exitX=0.5;exitY=1;exitDx=0;exitDy=0;" parent="1" source="KPl6-Z8b2giDErf2pCn6-3" edge="1">
          <mxGeometry width="50" height="50" relative="1" as="geometry">
            <mxPoint x="240" y="370" as="sourcePoint" />
            <mxPoint x="215" y="300" as="targetPoint" />
          </mxGeometry>
        </mxCell>
        <mxCell id="KPl6-Z8b2giDErf2pCn6-5" value="recvfrom()" style="rounded=0;whiteSpace=wrap;html=1;fontSize=14;" parent="1" vertex="1">
          <mxGeometry x="170" y="300" width="90" height="30" as="geometry" />
        </mxCell>
        <mxCell id="KPl6-Z8b2giDErf2pCn6-6" value="" style="endArrow=classic;html=1;rounded=0;exitX=0.5;exitY=1;exitDx=0;exitDy=0;" parent="1" source="KPl6-Z8b2giDErf2pCn6-5" edge="1">
          <mxGeometry width="50" height="50" relative="1" as="geometry">
            <mxPoint x="240" y="420" as="sourcePoint" />
            <mxPoint x="215" y="350" as="targetPoint" />
          </mxGeometry>
        </mxCell>
        <mxCell id="KPl6-Z8b2giDErf2pCn6-17" value="socket()" style="rounded=0;whiteSpace=wrap;html=1;fontSize=14;" parent="1" vertex="1">
          <mxGeometry x="-40" y="190" width="90" height="30" as="geometry" />
        </mxCell>
        <mxCell id="KPl6-Z8b2giDErf2pCn6-18" value="" style="endArrow=classic;html=1;rounded=0;exitX=0.5;exitY=1;exitDx=0;exitDy=0;" parent="1" source="KPl6-Z8b2giDErf2pCn6-17" edge="1">
          <mxGeometry width="50" height="50" relative="1" as="geometry">
            <mxPoint x="30" y="310" as="sourcePoint" />
            <mxPoint x="5" y="240" as="targetPoint" />
          </mxGeometry>
        </mxCell>
        <mxCell id="KPl6-Z8b2giDErf2pCn6-19" value="connect()" style="rounded=0;whiteSpace=wrap;html=1;fontSize=14;" parent="1" vertex="1">
          <mxGeometry x="-40" y="240" width="90" height="30" as="geometry" />
        </mxCell>
        <mxCell id="KPl6-Z8b2giDErf2pCn6-20" value="" style="endArrow=classic;html=1;rounded=0;exitX=0.5;exitY=1;exitDx=0;exitDy=0;" parent="1" source="KPl6-Z8b2giDErf2pCn6-19" edge="1">
          <mxGeometry width="50" height="50" relative="1" as="geometry">
            <mxPoint x="30" y="360" as="sourcePoint" />
            <mxPoint x="5" y="290" as="targetPoint" />
          </mxGeometry>
        </mxCell>
        <mxCell id="U-t2tcPcUnqknYB4p4qN-1" value="Client" style="text;html=1;align=center;verticalAlign=middle;whiteSpace=wrap;rounded=0;fontSize=17;" vertex="1" parent="1">
          <mxGeometry x="-25" y="160" width="60" height="30" as="geometry" />
        </mxCell>
        <mxCell id="U-t2tcPcUnqknYB4p4qN-2" value="Server" style="text;html=1;align=center;verticalAlign=middle;whiteSpace=wrap;rounded=0;fontSize=17;" vertex="1" parent="1">
          <mxGeometry x="185" y="130" width="60" height="30" as="geometry" />
        </mxCell>
        <mxCell id="U-t2tcPcUnqknYB4p4qN-4" value="sendto()" style="rounded=0;whiteSpace=wrap;html=1;fontSize=14;" vertex="1" parent="1">
          <mxGeometry x="170" y="350" width="90" height="30" as="geometry" />
        </mxCell>
        <mxCell id="U-t2tcPcUnqknYB4p4qN-5" value="sendto()" style="rounded=0;whiteSpace=wrap;html=1;fontSize=14;" vertex="1" parent="1">
          <mxGeometry x="-40" y="290" width="90" height="30" as="geometry" />
        </mxCell>
        <mxCell id="U-t2tcPcUnqknYB4p4qN-6" value="" style="endArrow=classic;html=1;rounded=0;exitX=0.5;exitY=1;exitDx=0;exitDy=0;" edge="1" parent="1" source="U-t2tcPcUnqknYB4p4qN-5">
          <mxGeometry width="50" height="50" relative="1" as="geometry">
            <mxPoint x="30" y="410" as="sourcePoint" />
            <mxPoint x="5" y="340" as="targetPoint" />
          </mxGeometry>
        </mxCell>
        <mxCell id="U-t2tcPcUnqknYB4p4qN-7" value="recvfrom" style="rounded=0;whiteSpace=wrap;html=1;fontSize=14;" vertex="1" parent="1">
          <mxGeometry x="-40" y="340" width="90" height="30" as="geometry" />
        </mxCell>
        <mxCell id="U-t2tcPcUnqknYB4p4qN-8" value="close" style="rounded=0;whiteSpace=wrap;html=1;fontSize=14;" vertex="1" parent="1">
          <mxGeometry x="-40" y="390" width="90" height="30" as="geometry" />
        </mxCell>
        <mxCell id="U-t2tcPcUnqknYB4p4qN-10" value="" style="endArrow=classic;html=1;rounded=0;exitX=0.5;exitY=1;exitDx=0;exitDy=0;" edge="1" parent="1">
          <mxGeometry width="50" height="50" relative="1" as="geometry">
            <mxPoint x="4.659999999999997" y="370" as="sourcePoint" />
            <mxPoint x="4.659999999999997" y="390" as="targetPoint" />
          </mxGeometry>
        </mxCell>
        <mxCell id="U-t2tcPcUnqknYB4p4qN-11" value="" style="endArrow=classic;html=1;rounded=0;" edge="1" parent="1">
          <mxGeometry width="50" height="50" relative="1" as="geometry">
            <mxPoint x="49" y="252" as="sourcePoint" />
            <mxPoint x="215" y="271" as="targetPoint" />
          </mxGeometry>
        </mxCell>
        <mxCell id="U-t2tcPcUnqknYB4p4qN-12" value="" style="endArrow=classic;html=1;rounded=0;entryX=0;entryY=0.5;entryDx=0;entryDy=0;" edge="1" parent="1" target="KPl6-Z8b2giDErf2pCn6-5">
          <mxGeometry width="50" height="50" relative="1" as="geometry">
            <mxPoint x="50" y="301" as="sourcePoint" />
            <mxPoint x="216" y="320" as="targetPoint" />
          </mxGeometry>
        </mxCell>
        <mxCell id="U-t2tcPcUnqknYB4p4qN-13" value="" style="endArrow=classic;html=1;rounded=0;exitX=0;exitY=0.5;exitDx=0;exitDy=0;entryX=1;entryY=0.5;entryDx=0;entryDy=0;" edge="1" parent="1" source="U-t2tcPcUnqknYB4p4qN-4" target="U-t2tcPcUnqknYB4p4qN-7">
          <mxGeometry width="50" height="50" relative="1" as="geometry">
            <mxPoint x="69" y="272" as="sourcePoint" />
            <mxPoint x="235" y="291" as="targetPoint" />
          </mxGeometry>
        </mxCell>
      </root>
    </mxGraphModel>
  </diagram>
</mxfile>
